<svg width="1512" height="2145" viewBox="0 0 1512 2145" fill="none" xmlns="http://www.w3.org/2000/svg">
<g clip-path="url(#clip0_2206_3)">
<rect width="1512" height="2145" fill="black"/>
<path d="M2910 1010.5C2910 1637.07 2406.1 2145 1784.5 2145C1162.9 2145 659 1637.07 659 1010.5C659 383.933 1162.9 -124 1784.5 -124C2406.1 -124 2910 383.933 2910 1010.5ZM872.046 1010.5C872.046 1518.46 1280.57 1930.25 1784.5 1930.25C2288.43 1930.25 2696.95 1518.46 2696.95 1010.5C2696.95 502.536 2288.43 90.7492 1784.5 90.7492C1280.57 90.7492 872.046 502.536 872.046 1010.5Z" fill="#FF0000"/>
<path d="M1688 1007C1688 1651.52 1169.77 2174 530.5 2174C-108.77 2174 -627 1651.52 -627 1007C-627 362.484 -108.77 -160 530.5 -160C1169.77 -160 1688 362.484 1688 1007ZM-396.307 1007C-396.307 1523.06 18.6387 1941.41 530.5 1941.41C1042.36 1941.41 1457.31 1523.06 1457.31 1007C1457.31 490.938 1042.36 72.5865 530.5 72.5865C18.6387 72.5865 -396.307 490.938 -396.307 1007Z" fill="#008CFF"/>
</g>
<defs>
<clipPath id="clip0_2206_3">
<rect width="1512" height="2145" fill="white"/>
</clipPath>
</defs>
</svg>
