<svg width="64" height="64" viewBox="0 0 64 64" fill="none" xmlns="http://www.w3.org/2000/svg">
<g clip-path="url(#clip0_2212_69)">
<path d="M44 32C44 34.775 43.85 37.45 43.5875 40H20.425C20.15 37.45 20.0125 34.775 20.0125 32C20.0125 29.225 20.1625 26.55 20.425 24H43.5875C43.8625 26.55 44 29.225 44 32ZM47.6 24H62.9875C63.65 26.5625 64 29.2375 64 32C64 34.7625 63.65 37.4375 62.9875 40H47.6C47.8625 37.425 48 34.75 48 32C48 29.25 47.8625 26.575 47.6 24ZM61.675 20H47.0875C45.8375 12.0125 43.3625 5.325 40.175 1.05C49.9625 3.6375 57.925 10.7375 61.6625 20H61.675ZM43.0375 20H20.9625C21.725 15.45 22.9 11.425 24.3375 8.1625C25.65 5.2125 27.1125 3.075 28.525 1.725C29.925 0.4 31.0875 0 32 0C32.9125 0 34.075 0.4 35.475 1.725C36.8875 3.075 38.35 5.2125 39.6625 8.1625C41.1125 11.4125 42.275 15.4375 43.0375 20ZM16.9125 20H2.325C6.075 10.7375 14.025 3.6375 23.825 1.05C20.6375 5.325 18.1625 12.0125 16.9125 20ZM1.0125 24H16.4C16.1375 26.575 16 29.25 16 32C16 34.75 16.1375 37.425 16.4 40H1.0125C0.35 37.4375 0 34.7625 0 32C0 29.2375 0.35 26.5625 1.0125 24ZM24.3375 55.825C22.8875 52.575 21.725 48.55 20.9625 44H43.0375C42.275 48.55 41.1 52.575 39.6625 55.825C38.35 58.775 36.8875 60.9125 35.475 62.2625C34.075 63.6 32.9125 64 32 64C31.0875 64 29.925 63.6 28.525 62.275C27.1125 60.925 25.65 58.7875 24.3375 55.8375V55.825ZM16.9125 44C18.1625 51.9875 20.6375 58.675 23.825 62.95C14.025 60.3625 6.075 53.2625 2.325 44H16.9125ZM61.675 44C57.925 53.2625 49.975 60.3625 40.1875 62.95C43.375 58.675 45.8375 51.9875 47.1 44H61.6875H61.675Z" fill="white"/>
</g>
<defs>
<clipPath id="clip0_2212_69">
<rect width="64" height="64" fill="white"/>
</clipPath>
</defs>
</svg>
