<svg width="56" height="64" viewBox="0 0 56 64" fill="none" xmlns="http://www.w3.org/2000/svg">
<path d="M56 12C56 7.5875 52.4125 4 48 4H8C3.5875 4 0 7.5875 0 12V52C0 56.4125 3.5875 60 8 60H48C52.4125 60 56 56.4125 56 52V12ZM33.225 50.9625C33.225 50.7375 33.225 50.2125 33.2375 49.5125C33.25 48.0875 33.25 45.9125 33.25 44.05C33.25 42.1 32.6 40.8625 31.8375 40.2125C36.4625 39.7 41.3375 39.0625 41.3375 31.075C41.3375 28.8 40.525 27.6625 39.2 26.2C39.4125 25.6625 40.125 23.45 38.9875 20.575C37.25 20.0375 33.275 22.8125 33.275 22.8125C31.625 22.35 29.8375 22.1125 28.075 22.1125C26.3125 22.1125 24.525 22.35 22.875 22.8125C22.875 22.8125 18.9 20.0375 17.1625 20.575C16.025 23.4375 16.725 25.65 16.95 26.2C15.625 27.6625 15 28.8 15 31.075C15 39.025 19.6625 39.7 24.2875 40.2125C23.6875 40.75 23.15 41.675 22.9625 43C21.775 43.5375 18.7375 44.4625 16.925 41.2625C15.7875 39.2875 13.7375 39.125 13.7375 39.125C11.7125 39.1 13.6 40.4 13.6 40.4C14.95 41.025 15.9 43.425 15.9 43.425C17.1125 47.1375 22.9125 45.8875 22.9125 45.8875C22.9125 47.0125 22.925 48.6 22.925 49.7125C22.925 50.3125 22.9375 50.7875 22.9375 50.9625C22.9375 51.5 22.5625 52.15 21.5 51.9625C13.25 49.2 7.475 41.35 7.475 32.175C7.475 20.7 16.25 11.9875 27.725 11.9875C39.2 11.9875 48.5 20.7 48.5 32.175C48.5125 41.35 42.9125 49.2125 34.6625 51.9625C33.6125 52.15 33.225 51.5 33.225 50.9625ZM21.9125 44.1125C21.8875 43.925 22.05 43.7625 22.2875 43.7125C22.525 43.6875 22.75 43.7875 22.775 43.95C22.8125 44.1125 22.65 44.275 22.4 44.325C22.1625 44.375 21.9375 44.275 21.9125 44.1125ZM20.775 44.5125C20.5 44.5375 20.3125 44.4 20.3125 44.2125C20.3125 44.05 20.5 43.9125 20.75 43.9125C20.9875 43.8875 21.2125 44.025 21.2125 44.2125C21.2125 44.375 21.025 44.5125 20.775 44.5125ZM18.9875 44.2375C18.75 44.1875 18.5875 44 18.6375 43.8375C18.6875 43.675 18.9375 43.6 19.15 43.65C19.4 43.725 19.5625 43.9125 19.5 44.075C19.45 44.2375 19.2 44.3125 18.9875 44.2375ZM17.425 43.325C17.2375 43.1625 17.1875 42.925 17.3125 42.8125C17.425 42.675 17.6625 42.7 17.85 42.8875C18.0125 43.05 18.075 43.3 17.9625 43.4C17.85 43.5375 17.6125 43.5125 17.425 43.325ZM16.3625 42.075C16.225 41.8875 16.225 41.675 16.3625 41.5875C16.5 41.475 16.7125 41.5625 16.825 41.75C16.9625 41.9375 16.9625 42.1625 16.825 42.2625C16.7125 42.3375 16.5 42.2625 16.3625 42.075ZM15.575 40.975C15.4375 40.8125 15.4125 40.625 15.525 40.5375C15.6375 40.425 15.825 40.4875 15.9625 40.6125C16.1 40.775 16.125 40.9625 16.0125 41.05C15.9 41.1625 15.7125 41.1 15.575 40.975ZM14.825 40.175C14.6625 40.1 14.5875 39.9625 14.6375 39.85C14.6875 39.775 14.825 39.7375 14.9875 39.8C15.15 39.8875 15.225 40.025 15.175 40.125C15.125 40.2375 14.9625 40.2625 14.825 40.175Z" fill="white"/>
</svg>
